<?xml version="1.0" standalone="no"?>
<!DOCTYPE svg PUBLIC "-//W3C//DTD SVG 20010904//EN"
 "http://www.w3.org/TR/2001/REC-SVG-20010904/DTD/svg10.dtd">
<svg version="1.0" xmlns="http://www.w3.org/2000/svg"
 width="450.000000pt" height="250.000000pt" viewBox="0 0 450.000000 250.000000"
 preserveAspectRatio="xMidYMid meet">
<metadata>
Created by potrace 1.11, written by Peter Selinger 2001-2013
</metadata>
<g transform="translate(0.000000,250.000000) scale(0.100000,-0.100000)"
fill="#000000" stroke="none">
<path d="M672 2343 c-11 -43 -41 -157 -66 -253 -25 -96 -57 -218 -71 -270 -24
-89 -119 -454 -186 -710 -16 -63 -57 -216 -89 -340 -33 -124 -85 -322 -115
-440 -31 -118 -58 -223 -61 -232 -5 -17 13 -18 283 -18 l289 0 21 83 c19 75
47 184 135 520 l31 118 106 -3 106 -3 13 -50 c7 -27 44 -180 83 -340 38 -160
72 -298 75 -307 5 -17 90 -18 1595 -18 l1589 0 0 280 0 280 -375 0 -375 0 0
890 0 890 -305 0 -305 0 0 -890 0 -890 -370 0 -370 0 0 890 0 890 -305 0 -305
0 -2 -892 -3 -893 -122 490 c-67 270 -145 585 -172 700 -83 350 -130 542 -141
569 l-10 26 -279 0 -279 0 -20 -77z m322 -840 c14 -71 26 -131 26 -135 0 -10
-130 -10 -130 -1 0 23 64 263 70 263 4 0 19 -57 34 -127z"/>
</g>
</svg>
